Coordinates
version=1
nRows=26
nColumns=24
inDegrees=yes

Units are S.I. units (second, meters, Newtons, ...)
Angles are in degrees.

endheader
time	pelvis_tilt	pelvis_list	pelvis_rotation	pelvis_tx	pelvis_ty	pelvis_tz	hip_flexion_r	hip_adduction_r	hip_rotation_r	knee_angle_r	ankle_angle_r	subtalar_angle_r	mtp_angle_r	hip_flexion_l	hip_adduction_l	hip_rotation_l	knee_angle_l	ankle_angle_l	subtalar_angle_l	mtp_angle_l	lumbar_extension	lumbar_bending	lumbar_rotation
      4.30000000	     -7.67150398	      3.07102261	     -7.99969425	     -0.66920832	     -0.04857851	      0.68654373	     -8.89096903	     -2.74506678	      4.31023364	    -12.89443318	     14.13695212	     -0.17461609	      4.48637100	     37.02884788	     -2.99185463	    -19.19882836	    -17.03598660	     -2.25038831	     17.80737176	     -4.07113137	      5.75811189	     -2.19205397	     11.09428262
      4.30500000	     -7.80304650	      3.49411572	     -8.05738737	     -0.66166420	     -0.04975093	      0.68614471	     -8.91501728	     -3.27456225	      4.46380942	    -13.45910723	     13.96394370	     -0.25358619	      4.52269763	     37.16377580	     -2.60424959	    -19.34764498	    -17.61075353	     -2.86058513	     17.32409124	     -3.92889376	      6.06331627	     -2.65153081	     11.19659794
      4.31000000	     -7.82030019	      3.94963614	     -8.04120646	     -0.65414270	     -0.05078252	      0.68550128	     -8.99618802	     -3.88748138	      4.18824496	    -14.14581634	     13.84878002	      0.16636473	      4.70602024	     37.17307719	     -2.07552941	    -19.21231296	    -18.08372138	     -3.90428641	     16.38999638	     -2.54130665	      6.22986225	     -3.15663126	     11.22878936
      4.31500000	     -7.89927630	      4.39802197	     -8.09539224	     -0.64660154	     -0.05177879	      0.68497734	     -9.00207075	     -4.47482591	      4.26181845	    -14.83080617	     13.57822384	      0.30802624	      4.85894735	     37.30689031	     -1.64590653	    -19.18536705	    -18.78052307	     -4.68169503	     15.72564408	     -1.93468051	      6.47637424	     -3.63428432	     11.35230034
      4.32000000	     -7.96453202	      4.88144344	     -8.05292995	     -0.63899600	     -0.05271189	      0.68436367	     -9.01267890	     -5.09606960	      4.18218275	    -15.55519284	     13.26054742	      0.52518829	      5.07522329	     37.46249082	     -1.12739083	    -19.00295073	    -19.54885363	     -5.41129122	     15.11489842	     -1.45422846	      6.71275655	     -4.17566514	     11.38722662
      4.32500000	     -8.01735678	      5.36508968	     -7.99243803	     -0.63137965	     -0.05356109	      0.68373332	     -8.99859056	     -5.72066205	      4.06799400	    -16.35355440	     12.85102747	      0.78324957	      5.35845144	     37.63562626	     -0.60273483	    -18.76107280	    -20.39842270	     -6.02936094	     14.54011897	     -1.06981207	      6.93544714	     -4.72416614	     11.39214693
      4.33000000	     -8.06339041	      5.84102698	     -7.90164892	     -0.62379090	     -0.05433173	      0.68304203	     -8.95277477	     -6.33796325	      3.96580429	    -17.23191359	     12.35028719	      1.06992968	      5.69500984	     37.82622549	     -0.06884481	    -18.46847083	    -21.31031960	     -6.52062420	     14.01006165	     -0.81488699	      7.13757284	     -5.26372745	     11.39257601
      4.33500000	     -8.12027245	      6.32553908	     -7.79616315	     -0.61602873	     -0.05503428	      0.68242706	     -8.88566407	     -6.95205766	      3.88835865	    -18.14976649	     11.69609161	      1.27479313	      5.97481329	     38.02639135	      0.46335806	    -18.21483579	    -22.27381416	     -6.80168021	     13.59053046	     -0.67666587	      7.38533222	     -5.82725438	     11.35593244
      4.34000000	     -8.13739366	      6.74431664	     -7.65309022	     -0.60849005	     -0.05563546	      0.68154487	     -8.76152499	     -7.55036579	      3.54887964	    -19.22557563	     11.01725682	      1.91305837	      6.68909042	     38.19992811	      1.00474375	    -17.80351819	    -23.23850629	     -7.06645341	     12.93710652	     -0.51493052	      7.52601909	     -6.30560223	     11.32868381
      4.34500000	     -8.19530093	      7.19081240	     -7.52564560	     -0.60078602	     -0.05616894	      0.68088183	     -8.57756147	     -8.13104777	      3.47524766	    -20.35453625	     10.15218498	      2.20171373	      7.09232291	     38.37640647	      1.52326300	    -17.56105844	    -24.18590964	     -7.14593577	     12.49689787	     -0.44181619	      7.75284067	     -6.82771345	     11.32268873
      4.35000000	     -8.24398103	      7.56310656	     -7.36600455	     -0.59323931	     -0.05658716	      0.68003446	     -8.31556719	     -8.68031033	      3.18898656	    -21.61949233	      9.21105939	      2.89428428	      7.84112457	     38.52213864	      2.02769145	    -17.18875623	    -25.08921461	     -7.19110433	     11.97138707	     -0.36994641	      7.91995554	     -7.26447356	     11.27666523
      4.35500000	     -8.27716954	      7.91696190	     -7.19048628	     -0.58563771	     -0.05690148	      0.67921769	     -8.03322904	     -9.20416473	      2.94265901	    -22.95484945	      8.10748921	      3.46816500	      8.61247914	     38.60050921	      2.52626399	    -16.89835549	    -25.93042139	     -7.11049956	     11.52494440	     -0.24194964	      8.07535817	     -7.68855283	     11.22267879
      4.36000000	     -8.23031638	      8.21456151	     -6.97436143	     -0.57808901	     -0.05700817	      0.67836047	     -7.81117166	     -9.67851056	      2.66484917	    -24.30286214	      6.78058901	      3.89213669	      9.95595111	     38.52948995	      3.02753510	    -16.58621681	    -26.66073989	     -6.97960669	     11.12685834	      0.08338546	      8.11595040	     -8.07803352	     11.11847321
      4.36500000	     -8.32023086	      8.48839401	     -6.81323462	     -0.57062864	     -0.05714245	      0.67755981	     -7.31387220	    -10.12280580	      2.49388429	    -25.87503221	      5.44710949	      4.58776226	     10.47747069	     38.55884213	      3.44456642	    -16.39969747	    -27.33336234	     -6.76252553	     10.81893762	      0.35160176	      8.30486895	     -8.40894982	     11.09307049
      4.37000000	     -8.36776524	      8.75942524	     -6.58228956	     -0.56318696	     -0.05712147	      0.67663392	     -6.82878060	    -10.58390595	      2.20522537	    -27.48842937	      3.98173922	      5.28852704	     11.19302482	     38.47085400	      3.94000329	    -16.14578986	    -27.86060102	     -6.54470942	     10.51605316	      0.78897749	      8.42999906	     -8.74968593	     10.97748143
      4.37500000	     -8.34478447	      8.99909266	     -6.37494645	     -0.55584560	     -0.05686773	      0.67573839	     -6.37043836	    -11.01400702	      2.00209940	    -29.08653736	      2.30096664	      5.67976899	     12.52876102	     38.22021721	      4.43353483	    -15.86999296	    -28.19956522	     -6.41844777	     10.09850396	      1.77206660	      8.46129562	     -9.06352194	     10.89665526
      4.38000000	     -8.41136187	      9.22541696	     -6.13919852	     -0.54854910	     -0.05665459	      0.67488841	     -5.73449705	    -11.42031221	      1.76779211	    -30.84679672	      0.67581113	      6.28340832	     12.97160691	     38.04009499	      4.87288122	    -15.76539062	    -28.55781748	     -6.04417623	     10.10905561	      2.21623514	      8.58446656	     -9.36524333	     10.75585346
      4.38500000	     -8.48589750	      9.48148975	     -5.91428718	     -0.54135721	     -0.05631994	      0.67394697	     -5.01465482	    -11.86991214	      1.58193849	    -32.64656685	     -1.00028654	      6.79091985	     13.61028282	     37.79848255	      5.38360930	    -15.57092965	    -28.74379330	     -5.76532282	      9.90652854	      2.85979931	      8.71052478	     -9.68192042	     10.64365445
      4.39000000	     -8.54905459	      9.69828302	     -5.70928030	     -0.53424052	     -0.05588321	      0.67302492	     -4.25411192	    -12.27157921	      1.47145022	    -34.44652217	     -2.71748097	      7.13837040	     14.49472806	     37.48835802	      5.85005440	    -15.42503935	    -28.82223382	     -5.49639825	      9.68850487	      3.85409124	      8.81569470	     -9.95429401	     10.53140408
      4.39500000	     -8.60192046	      9.91503422	     -5.51173934	     -0.52732268	     -0.05537033	      0.67220679	     -3.41796042	    -12.65010984	      1.39605126	    -36.33213655	     -4.35967221	      7.27365564	     15.13959138	     37.14108130	      6.29744833	    -15.31323547	    -28.85541365	     -5.16608748	      9.65838355	      4.65473386	      8.88240751	    -10.23594923	     10.42240121
      4.40000000	     -8.60133777	     10.13337835	     -5.28766056	     -0.52043847	     -0.05474314	      0.67143153	     -2.61026460	    -13.00764093	      1.32909941	    -38.24628802	     -5.90171546	      7.26808806	     15.31184658	     36.69990883	      6.76675273	    -15.19553230	    -28.85851996	     -4.67152544	      9.82100309	      4.98120643	      8.88358546	    -10.54168559	     10.24675444
      4.40500000	     -8.75450201	     10.38707162	     -5.11924436	     -0.51371904	     -0.05420373	      0.67060944	     -1.52035313	    -13.39689071	      1.40495958	    -40.21457016	     -7.30539382	      7.24472398	     15.93306604	     36.39392502	      7.22899832	    -15.11535051	    -28.74438802	     -4.36443949	      9.77724950	      5.71084251	      9.05584255	    -10.83410257	     10.17344098
      4.41000000	     -8.75771941	     10.63949385	     -4.89100327	     -0.50696906	     -0.05345421	      0.66988919	     -0.61510528	    -13.75476858	      1.41709844	    -42.14891067	     -8.59730553	      6.94934340	     16.06620188	     35.88892366	      7.73260537	    -15.02923961	    -28.60900533	     -3.89408042	      9.97311546	      5.99429904	      9.05481390	    -11.17861158	      9.93443796
      4.41500000	     -8.82296982	     10.91966214	     -4.69823496	     -0.50033197	     -0.05273614	      0.66919617	      0.43481934	    -14.12489820	      1.51311095	    -44.11781493	     -9.69457739	      6.54212544	     16.24013117	     35.42839112	      8.23918935	    -14.95775450	    -28.40914480	     -3.46866733	     10.11526613	      6.28534618	      9.12352109	    -11.53246830	      9.75803940
      4.42000000	     -9.00444184	     11.18547338	     -4.55347456	     -0.49384929	     -0.05207846	      0.66856759	      1.68938591	    -14.44271925	      1.76006194	    -46.08896369	    -10.63341872	      6.04312791	     16.69167287	     35.08125876	      8.68087995	    -14.92422352	    -28.15924433	     -3.14939136	     10.19722272	      6.81290701	      9.31752443	    -11.84340995	      9.67203859
      4.42500000	     -9.02205714	     11.47038485	     -4.33465071	     -0.48734264	     -0.05121261	      0.66794675	      2.72557853	    -14.77793382	      1.88032526	    -47.99556470	    -11.38962999	      5.35346061	     16.76983564	     34.52830093	      9.20945064	    -14.83864658	    -27.87755913	     -2.77361689	     10.36833490	      7.01003461	      9.31222794	    -12.22141079	      9.40136732
